<svg id="Layer_1" data-name="Layer 1" xmlns="http://www.w3.org/2000/svg" viewBox="0 0 613.73 613.73"><defs><style>.cls-1{fill:#fff;}</style></defs><circle cx="308.41" cy="306.87" r="296.87" transform="translate(-128.2 307.96) rotate(-45)"/><path class="cls-1" d="M308.41,10V20A287,287,0,1,1,148,69,285.91,285.91,0,0,1,308.41,20V0A306.93,306.93,0,1,0,480,52.41,306,306,0,0,0,308.41,0Z" transform="translate(-1.55)"/><path class="cls-1" d="M378.91,208.6H256.41v79.57q8-11.16,23.73-18.32A80.71,80.71,0,0,1,314,262.69q29,0,47.11,12t26,31.07A104.69,104.69,0,0,1,395,346.11q0,25.13-9.43,45a71.52,71.52,0,0,1-28.79,31.41q-19.37,11.52-48,11.52-36.64,0-59.33-18.85T221.86,365h31.06q4.53,19.91,19.2,31.06t37,11.17q27.57,0,41.53-16.58t14-43.8q0-27.21-14-42.05t-41.18-14.83q-18.49,0-32.28,8.9a51.27,51.27,0,0,0-20.07,24.25h-30V180.67H378.91Z" transform="translate(-1.55)"/></svg>