<svg id="Layer_1" data-name="Layer 1" xmlns="http://www.w3.org/2000/svg" viewBox="0 0 613.73 613.73"><defs><style>.cls-1{fill:#fff;}</style></defs><circle cx="308.41" cy="306.87" r="296.87" transform="translate(-128.2 307.96) rotate(-45)"/><path class="cls-1" d="M308.41,10V20A287,287,0,1,1,148,69,285.91,285.91,0,0,1,308.41,20V0A306.93,306.93,0,1,0,480,52.41,306,306,0,0,0,308.41,0Z" transform="translate(-1.55)"/><path class="cls-1" d="M249.43,197.5q21.93-17.82,56.91-17.82,23.31,0,40.28,8.4t25.71,22.79a61.51,61.51,0,0,1,8.75,32.57q0,21.27-12.18,36.69A54.67,54.67,0,0,1,337.19,300v1.71q22.29,5.49,35.31,21.6t13,42.17q0,19.54-8.91,35.14t-26.74,24.51Q332,434.06,307,434.06q-36.33,0-59.65-19t-26.05-54h30.17q2.38,20.58,16.79,33.6t38.4,13q24,0,36.51-12.51t12.52-32.4q0-25.71-17.15-37T286.8,314.41h-7.89V288.35h8.23q31.55-.33,47.65-10.45t16.12-31.37q0-18.17-11.83-29.14t-33.77-11q-21.26,0-34.28,11T255.6,246.87H225.09Q227.48,215.34,249.43,197.5Z" transform="translate(-1.55)"/></svg>