<svg id="Layer_1" data-name="Layer 1" xmlns="http://www.w3.org/2000/svg" viewBox="0 0 613.73 613.73"><defs><style>.cls-1{fill:#fff;}</style></defs><circle cx="308.41" cy="306.87" r="296.87" transform="translate(-128.2 307.96) rotate(-45)"/><path class="cls-1" d="M308.41,10V20A287,287,0,1,1,148,69,285.91,285.91,0,0,1,308.41,20V0A306.93,306.93,0,1,0,480,52.41,306,306,0,0,0,308.41,0Z" transform="translate(-1.55)"/><path class="cls-1" d="M295,352.82a282.11,282.11,0,0,0,42.45-47.88q17.3-25,17.3-49.09,0-22.71-11-35.82t-35.46-13.1q-23.77,0-36.87,14.85t-14.15,39.66H226.51q1.4-39.12,23.76-60.45t57.66-21.31q36,0,57.13,19.91t21.14,54.86q0,29-17.3,56.43a246.86,246.86,0,0,1-39.31,48.23q-22,20.79-56.26,48.39H393.54v26.56H225.46V411.34Q269.83,375.7,295,352.82Z" transform="translate(-1.55)"/></svg>