<?xml version="1.0" encoding="utf-8"?>
<!-- Generator: Adobe Illustrator 25.4.1, SVG Export Plug-In . SVG Version: 6.00 Build 0)  -->
<svg version="1.1" id="Layer_1" xmlns="http://www.w3.org/2000/svg" xmlns:xlink="http://www.w3.org/1999/xlink" x="0px" y="0px"
	 viewBox="0 0 614.4 613.7" style="enable-background:new 0 0 614.4 613.7;" xml:space="preserve">
<style type="text/css">
	.st0{fill:#FFFFFF;}
</style>
<g>
	<ellipse cx="308.4" cy="306.9" rx="296.9" ry="296.9"/>
	<path class="st0" d="M308.4,10v10c39.6,0,77.3,8,111.7,22.5c51.5,21.8,95.3,58.2,126.2,103.9c30.9,45.8,49,100.9,49,160.4
		c0,39.6-8,77.3-22.5,111.7C551,470,514.6,513.8,468.8,544.7c-45.8,30.9-100.9,49-160.4,49c-39.6,0-77.3-8-111.7-22.5
		c-51.5-21.8-95.3-58.2-126.2-103.9c-30.9-45.8-49-100.9-49-160.4c0-39.6,8-77.3,22.5-111.7C65.9,143.7,102.2,99.9,148,69
		C193.8,38,249,20,308.4,20V10V0C266.1,0,225.7,8.6,189,24.1C133.9,47.4,87,86.3,54,135.3c-33.1,49-52.4,108.1-52.4,171.6
		c0,42.3,8.6,82.7,24.1,119.5c23.3,55.1,62.2,101.9,111.2,135c49,33.1,108.1,52.4,171.6,52.4c42.3,0,82.7-8.6,119.5-24.1
		c55.1-23.3,101.9-62.2,135-111.2c33.1-49,52.4-108.1,52.4-171.6c0-42.3-8.6-82.7-24.1-119.4C567.9,132.3,529,85.5,480,52.4
		C431,19.3,371.9,0,308.4,0V10z"/>
</g>
<g>
	<path class="st0" d="M277.5,209.8v-29.1h61.7V434h-30.2V209.8H277.5z"/>
</g>
</svg>
